{"accessors":[{"bufferView":0,"componentType":5126,"count":24,"max":[-1.098928451538086,4.279282569885254,1.8981812000274658],"min":[-1.513319492340088,-1.1775803565979004,-1.0],"normalized":false,"type":"VEC3"},{"bufferView":1,"componentType":5126,"count":24,"max":[1.0,3.0581719329347834e-05,0.9999999403953552,1.0],"min":[-1.0,-3.0456227250397205e-05,-0.9999999403953552,1.0],"normalized":false,"type":"VEC4"},{"bufferView":2,"componentType":5126,"count":24,"max":[1.0,1.0,1.0],"min":[-1.0,-1.0,-1.0],"normalized":false,"type":"VEC3"},{"bufferView":3,"componentType":5126,"count":24,"max":[1.0000001192092896,1.0],"min":[-1.5258790881489404e-05,0.17659270763397217],"normalized":false,"type":"VEC2"},{"bufferView":4,"componentType":5121,"count":36,"max":[23],"min":[0],"normalized":false,"type":"SCALAR"}],"asset":{"generator":"Godot Engine v4.6.3.stable.steam@7d41c59c457bd5a245092b4e7eb2d833e3b3f8c3","version":"2.0"},"bufferViews":[{"buffer":0,"byteLength":288,"byteStride":12,"target":34962},{"buffer":0,"byteLength":384,"byteOffset":288,"byteStride":16,"target":34962},{"buffer":0,"byteLength":288,"byteOffset":672,"byteStride":12,"target":34962},{"buffer":0,"byteLength":192,"byteOffset":960,"byteStride":8,"target":34962},{"buffer":0,"byteLength":36,"byteOffset":1152,"target":34963}],"buffers":[{"byteLength":1188,"uri":"sky0.bin"}],"extensionsUsed":["GODOT_single_root"],"images":[{"uri":"textures%2F.png"}],"materials":[{"doubleSided":true,"name":"doortest","pbrMetallicRoughness":{"baseColorFactor":[1.0,1.0,1.0,1.0],"baseColorTexture":{"index":0},"metallicFactor":0.0,"roughnessFactor":0.5}}],"meshes":[{"name":"Untitleddoor_Cube_002","primitives":[{"attributes":{"NORMAL":2,"POSITION":0,"TANGENT":1,"TEXCOORD_0":3},"indices":4,"material":0,"mode":4}]}],"nodes":[{"children":[1,2],"name":"Untitleddoor"},{"mesh":0,"name":"Cube","rotation":[0.0027706611435860395,-0.06450232118368149,0.020688991993665695,0.9976992607116699],"translation":[13.2691068649292,1.8882384300231934,-16.39461898803711]},{"name":"WorldEnvironment"}],"samplers":[{"magFilter":9729,"minFilter":9987,"wrapS":10497,"wrapT":10497}],"scene":0,"scenes":[{"nodes":[0]}],"textures":[{"sampler":0,"source":0}]}